<svg width="30" height="30" viewBox="0 0 30 30" fill="none" xmlns="http://www.w3.org/2000/svg">
<path d="M27.3418 8.34929C27.5182 7.76326 27.3418 7.3335 26.5075 7.3335H23.7436C23.0404 7.3335 22.719 7.70528 22.5426 8.11362C22.5426 8.11362 21.1373 11.5404 19.1461 13.7622C18.5033 14.4088 18.2097 14.6129 17.8593 14.6129C17.6841 14.6129 17.4296 14.4088 17.4296 13.8227V8.34929C17.4296 7.64605 17.2267 7.3335 16.6406 7.3335H12.2977C11.8591 7.3335 11.5944 7.65865 11.5944 7.96868C11.5944 8.63412 12.59 8.78787 12.6921 10.6632V14.7314C12.6921 15.6224 12.5321 15.785 12.1792 15.785C11.2428 15.785 8.96418 12.3457 7.61189 8.40853C7.34849 7.64353 7.08257 7.33476 6.3768 7.33476H3.61424C2.82404 7.33476 2.6665 7.70654 2.6665 8.11488C2.6665 8.84837 3.6029 12.478 7.02838 17.2785C9.31203 20.5565 12.527 22.3335 15.4559 22.3335C17.2115 22.3335 17.4283 21.939 17.4283 21.2585V18.7807C17.4283 17.9918 17.5959 17.833 18.1517 17.833C18.5601 17.833 19.2633 18.0397 20.9029 19.6188C22.7757 21.4916 23.0858 22.3322 24.1381 22.3322H26.9007C27.6896 22.3322 28.0841 21.9378 27.8572 21.1589C27.6089 20.3838 26.7141 19.2559 25.5269 17.9212C24.8817 17.16 23.9176 16.3408 23.6239 15.9312C23.2143 15.4031 23.3328 15.17 23.6239 14.7012C23.6252 14.7024 26.9914 9.96121 27.3418 8.34929Z" fill="white"/>
</svg>
